<?xml version="1.0" standalone="no"?>
<!DOCTYPE svg PUBLIC "-//W3C//DTD SVG 20010904//EN"
 "http://www.w3.org/TR/2001/REC-SVG-20010904/DTD/svg10.dtd">
<svg version="1.0" xmlns="http://www.w3.org/2000/svg"
 width="300.000000pt" height="108.000000pt" viewBox="0 0 300.000000 108.000000"
 preserveAspectRatio="xMidYMid meet">

<g transform="translate(0.000000,108.000000) scale(0.100000,-0.100000)"
fill="#000000" stroke="none">
<path d="M809 1078 c-1 -2 -18 -96 -38 -210 l-37 -208 37 0 37 0 16 93 c10 50
20 107 23 125 3 19 9 30 13 25 4 -4 25 -61 46 -125 l38 -118 37 0 37 0 42 126
c27 79 45 122 50 113 4 -8 15 -65 25 -126 l18 -113 183 0 184 0 0 86 c0 58 4
84 11 82 6 -2 30 -39 52 -83 42 -80 42 -80 86 -83 23 -2 41 0 39 5 -2 4 -23
46 -46 92 -24 45 -42 84 -40 85 2 1 15 10 30 19 59 37 56 145 -5 191 -25 19
-45 21 -227 24 l-200 4 0 -152 c0 -85 -3 -150 -7 -147 -5 6 -52 264 -53 290 0
4 -17 7 -37 7 l-38 0 -50 -144 c-27 -80 -52 -143 -55 -140 -3 3 -26 67 -51
142 l-46 137 -36 3 c-20 2 -37 2 -38 0z m641 -118 l0 -40 -80 0 -80 0 0 40 0
40 80 0 80 0 0 -40z m151 30 c11 -6 19 -21 19 -35 0 -28 -26 -45 -69 -45 -30
0 -31 1 -31 45 0 44 1 45 31 45 17 0 39 -5 50 -10z m-153 -202 l3 -58 -81 0
-80 0 0 53 c0 30 3 57 7 61 4 4 39 5 78 4 l70 -3 3 -57z"/>
<path d="M1721 938 c28 -79 61 -172 74 -208 l22 -65 42 0 43 0 62 172 c33 94
65 175 69 179 4 4 7 -74 7 -174 l0 -182 115 0 115 0 0 35 0 34 -77 3 -78 3 0
55 0 55 78 3 77 3 0 34 0 35 -80 0 -80 0 0 40 0 40 80 0 80 0 0 40 0 40 -149
0 -149 0 -41 -112 c-22 -62 -47 -131 -55 -153 -14 -40 -14 -40 -25 -15 -6 14
-30 81 -54 150 l-44 125 -41 3 -41 3 50 -143z"/>
<path d="M2550 657 c-104 -23 -190 -91 -232 -182 -34 -73 -33 -219 1 -289 33
-66 91 -122 160 -155 47 -22 69 -26 141 -25 98 0 141 12 210 60 l50 34 0 -40
0 -40 60 0 60 0 0 315 0 315 -60 0 -60 0 0 -40 0 -41 -45 31 c-84 58 -188 79
-285 57z m165 -121 c19 -8 51 -27 70 -42 l36 -27 22 22 c13 11 26 21 30 21 4
0 7 -82 7 -182 l0 -182 -29 28 -29 28 -34 -25 c-59 -44 -99 -59 -159 -60 -75
0 -143 33 -184 92 -27 39 -30 50 -30 124 0 73 3 86 28 122 40 59 108 95 180
95 32 0 73 -7 92 -14z"/>
<path d="M10 335 l0 -315 55 0 55 0 0 135 c0 74 3 135 8 135 4 0 49 -61 100
-135 l94 -135 93 0 93 0 23 65 23 65 132 0 132 0 24 -63 24 -62 164 -3 c185
-3 223 3 276 50 l36 32 -16 -38 c-9 -21 -16 -40 -16 -43 0 -2 28 -3 62 -1 l62
3 25 62 24 63 132 0 131 0 23 -65 23 -65 109 0 109 0 0 135 c0 74 3 135 8 135
4 -1 47 -60 96 -131 50 -72 95 -133 102 -136 6 -2 38 -3 71 -1 l60 3 -119 172
-120 173 111 140 111 140 -72 0 -73 -1 -80 -104 c-44 -57 -83 -104 -87 -105
-5 0 -8 47 -8 105 l0 105 -60 0 -60 0 -2 -274 -3 -275 -105 275 -105 274 -61
0 -62 0 -42 -107 c-23 -60 -65 -169 -93 -243 l-52 -135 -6 51 c-8 63 -19 85
-65 123 l-37 30 27 31 c22 26 26 41 26 90 0 48 -4 64 -26 90 -44 52 -78 63
-201 68 l-113 5 0 -272 c0 -149 -4 -271 -8 -271 -4 0 -16 21 -25 48 -10 26
-56 147 -104 270 l-86 222 -61 0 -61 0 -105 -275 c-58 -151 -107 -275 -110
-275 -3 0 -19 22 -36 48 -18 26 -59 86 -93 134 l-61 87 62 78 c33 43 83 106
110 141 l50 62 -71 0 -71 0 -81 -102 c-44 -57 -85 -104 -90 -106 -5 -2 -9 43
-9 102 l0 106 -55 0 -55 0 0 -315z m1153 194 c29 -16 37 -28 37 -61 0 -36 -44
-70 -84 -66 -30 3 -31 5 -34 57 -2 29 -1 60 2 67 7 17 49 18 79 3z m-429 -159
c20 -52 36 -98 36 -102 0 -9 -154 -11 -162 -3 -3 3 13 53 35 110 23 58 44 102
48 97 3 -4 23 -50 43 -102z m924 3 c22 -56 37 -104 34 -107 -9 -9 -162 -7
-162 2 0 4 15 46 34 93 18 46 36 93 40 103 3 10 8 17 11 15 2 -3 22 -50 43
-106z m-451 -99 c55 -35 49 -113 -9 -133 -17 -6 -51 -11 -74 -11 l-44 0 0 78
c0 43 3 82 8 86 11 12 92 -2 119 -20z"/>
</g>
</svg>
